#!OML:ASF F:\VICON\USERDATA\INSTALL\rory3\rory3.ASF
:FULLY-SPECIFIED
:DEGREES
86
root -6.252505440982915 17.796224650443463 -2.0758234047872275 -163.95129551194248 -8.403521237308375 -175.68525868549523
lfemur -22.080909910142232 -13.45897018825968 -11.931278604724152
ltibia 25.113431534825086
lfoot 32.233613296829866 -37.4444641202041
ltoes 56.71938304358075
rfemur 12.147607865637355 -5.508435734422493 19.912164354812422
rtibia 14.086292946707117
rfoot 35.33476059927704 -33.86048702453379
rtoes 25.530213445751297
lowerback -9.764722235536361 14.821900484586877 11.352962147284632
upperback -15.088462023347475 17.31964086490298 1.2587863015718481
thorax -7.219325552797854 6.354764929659869 -4.565285234017338
lowerneck -7.874454238166777 -17.757145801339725 -4.497083354487673
upperneck 9.028245263032343 -25.39308714085926 3.943297179941255
head 4.5583814155711675 -12.76293571245194 -0.4666665190592214
lclavicle -6.999872189751148e-15 -4.821877669381326e-15
lhumerus 64.94255777004464 17.00678250100239 63.79294792277135
lradius 69.79437920426412
lwrist 11.806014323277182
lhand -19.70527127862771 22.408726240460794
lfingers 7.125020000000003
lthumb -176.2320952449323 348.6657086677219
rclavicle -6.9994759226226184e-15 -5.1449183066075915e-15
rhumerus 81.6678404350707 20.679467829727564 -59.44583049474064
rradius 24.611637352984218
rwrist -24.44008193950738
rhand -36.654886337616276 14.60037213834994
rfingers 7.125020000000003
rthumb -12.933022027877204 -11.271107000019935
87
root -6.235175989148349 17.795471372736476 -2.0368720205706166 -164.02875579130458 -7.970236040911864 -175.8643430904773
lfemur -21.911244387173316 -12.591034996423804 -11.376287763812787
ltibia 25.617255453252625
lfoot 31.43404652499522 -36.065196637849326
ltoes 55.383605234517916
rfemur 10.8289701606802 -4.625592952301989 19.69106744132797
rtibia 15.016355754654274
rfoot 34.62694469822663 -34.788589895511066
rtoes 27.126731874222582
lowerback -9.501233744541338 14.430175440777425 10.995019718087656
upperback -14.581508149036381 16.899764602911947 1.2832558595731414
thorax -6.910473804026021 6.247798636356592 -4.289731920388022
lowerneck -8.429689752277174 -16.821119336115565 -4.378455676783953
upperneck 9.435309314988015 -24.428174339170223 3.5149330359725077
head 4.68671768786411 -12.258935260103678 -0.6259955135975019
lclavicle -7.006894825881463e-15 -4.833410107791105e-15
lhumerus 63.844853979991456 16.762740924710137 63.29163997314572
lradius 68.76932389309411
lwrist 12.332854930167738
lhand -18.542514666753757 22.97623471401297
lfingers 7.125020000000003
lthumb -174.89464639829285 350.24389645183186
rclavicle -6.9954288085513465e-15 -5.1420511671439604e-15
rhumerus 79.37346852394145 20.662181820588515 -60.5743891133572
rradius 23.680131642579006
rwrist -26.440758492884783
rhand -36.567441088063134 13.348746030783236
rfingers 7.125020000000003
rthumb -12.655130429816762 -12.868542828554936
88
root -6.2020209473445 17.79968975975842 -1.9944833541207494 -164.3785416646641 -7.583646319515829 -176.53341849792199
lfemur -21.686408446434417 -11.695998612451248 -10.81599622681513
ltibia 26.14084874937838
lfoot 30.28903004982499 -34.92660368059255
ltoes 53.752774622492964
rfemur 9.46184574429435 -3.7959874914389307 19.268514393141125
rtibia 16.24678293365599
rfoot 33.89066537459147 -35.26488860645668
rtoes 28.07609401576935
lowerback -9.09757757783364 14.110435456136004 10.556997254150174
upperback -13.928836642100414 16.311412254774947 1.2613371446661956
thorax -6.474269154891459 6.007580868018168 -4.009610753856702
lowerneck -9.434386385312049 -15.813493167935485 -4.005652734391621
upperneck 9.981740888302237 -23.200183849790818 2.8758410460542123
head 4.866744290671694 -11.638853100319535 -0.8464533280922408
lclavicle -7.010233733115666e-15 -4.849613773217984e-15
lhumerus 62.95396521369177 16.52614866721587 63.089752729925834
lradius 67.48033462984513
lwrist 13.077003023765585
lhand -17.3562438923162 23.20342486238026
lfingers 7.125020000000003
lthumb -173.33620761704572 349.6844479897294
rclavicle -6.99667728445645e-15 -5.1429413563281756e-15
rhumerus 77.35113052952231 20.664850115058176 -61.61574878465504
rradius 22.973012053616756
rwrist -28.531844325086453
rhand -36.61368799127078 12.15083163559067
rfingers 7.125020000000003
rthumb -12.438283790590685 -14.39832928759049
89
root -6.183633102591866 17.79697046168201 -1.9510784801136465 -164.28348487289583 -7.058894352618189 -176.4078388352579
lfemur -21.33512517878423 -10.858629037781196 -10.23841131945122
ltibia 26.58581008897128
lfoot 29.060212026286983 -33.82067269667728
ltoes 52.35810532282591
rfemur 7.977494215927329 -2.947373301487204 18.667745638153516
rtibia 17.717019663604077
rfoot 32.988783072927625 -35.64126032137441
rtoes 29.41206943144448
lowerback -8.645861973912563 13.986352037326544 10.250032213611636
upperback -13.291629883276926 15.575550188924279 1.2150339179765772
thorax -6.08130618422721 5.537909296154135 -3.623921591237922
lowerneck -10.395627944636367 -14.667834245814738 -3.6016516449461364
upperneck 10.439006822894088 -21.660364049488877 2.306524001131824
head 5.055630810172682 -10.857725450837401 -1.002806688827576
lclavicle -7.020126778219856e-15 -4.83512631603537e-15
lhumerus 62.02138521144419 16.02120056169811 63.01064422803054
lradius 65.96290073342873
lwrist 14.24701282643358
lhand -16.224827893493526 23.339635517685313
lfingers 7.125020000000003
lthumb -172.145794995755 343.5137484651916
rclavicle -7.005650183435083e-15 -5.149060935936519e-15
rhumerus 75.30515644732642 21.03474197190745 -62.675805768214445
rradius 22.39620978467815
rwrist -30.74756197889515
rhand -36.924353340166164 10.846292625692769
rfingers 7.125020000000003
rthumb -12.540025257392077 -15.94386873099549
90
root -6.1601165348690055 17.804207262635313 -1.9002373955814291 -164.42683029155287 -6.367588754075456 -175.9847153421232
lfemur -20.964126435946998 -10.076717299180283 -9.677719746635807
ltibia 27.03141668578331
lfoot 27.276648197603812 -32.926285059772034
ltoes 50.07479966583098
rfemur 6.39630131793024 -1.9310456163753864 18.004068467716824
rtibia 19.336789822347537
rfoot 32.29125369579331 -35.69934836028394
rtoes 29.830826374330307
lowerback -8.237621339078062 13.511917748958261 9.730690823201671
upperback -12.41720464166044 14.848271524042602 1.2440916812857215
thorax -5.425870776318412 5.261691050229577 -3.19223671372019
lowerneck -11.890030060350991 -13.150396361738265 -3.0039203045828713
upperneck 11.061663424647383 -19.96870806412754 1.7870522228251522
head 5.28902435922531 -10.031873362032531 -1.1716759399423113
lclavicle -7.016319768179222e-15 -4.83566578867591e-15
lhumerus 61.12106283876226 15.41915353486769 63.02867297284775
lradius 64.09333926440243
lwrist 15.684092511041047
lhand -14.977954764226173 23.529487898857244
lfingers 7.125020000000003
lthumb -170.8414594992664 341.3338668595183
rclavicle -7.0174148012511315e-15 -5.157356580123983e-15
rhumerus 73.10407113866009 21.453878809294643 -63.698554614493794
rradius 21.831627478298657
rwrist -32.78842966516652
rhand -37.26871274592562 9.689500149074078
rfingers 7.125020000000003
rthumb -12.866758552599116 -17.44332938396206
91
root -6.1204277426870854 17.81466166554073 -1.8621085008557645 -164.33987690882162 -5.867208836292889 -176.0336041367894
lfemur -20.533941801334997 -9.383403357011426 -9.007351671748012
ltibia 27.433867167408707
lfoot 25.64334654145587 -31.874319455608656
ltoes 48.66792883930698
rfemur 4.805040226110284 -0.941741591878637 17.2856084344349
rtibia 21.01336201694776
rfoot 31.58417503518166 -35.70610501301185
rtoes 30.213501610374212
lowerback -7.85904237040292 13.090954342149047 9.161202255583815
upperback -11.504231870975111 13.974475719996839 1.1672154148804466
thorax -4.731875069270055 4.740865811989823 -2.7542760872590746
lowerneck -13.399603156365803 -11.132329564216855 -2.2295251552672712
upperneck 11.58883071768859 -17.796112484882546 1.432945370878418
head 5.520040133068669 -8.912427681754806 -1.2499937867371849
lclavicle -7.018240497020632e-15 -4.846750481660711e-15
lhumerus 59.84086306954902 14.441254209907562 62.854936304082884
lradius 61.93147085142633
lwrist 17.326197450657745
lhand -14.0487524777338 23.94583751295137
lfingers 7.125020000000003
lthumb -169.75099704402902 335.1834451696503
rclavicle -7.020508263700326e-15 -5.159370142597808e-15
rhumerus 71.272437941081 22.270308885995284 -64.47843907690586
rradius 21.486266728696975
rwrist -34.677213398311004
rhand -37.55392295130056 8.61212396497319
rfingers 7.125020000000003
rthumb -13.446148549050239 -18.73514006056518
92
root -6.083226963212079 17.82980182072304 -1.8086640921858854 -164.22971169253555 -5.026143512628032 -175.77868550321008
lfemur -20.014585010236747 -8.793654684888308 -8.303442047680136
ltibia 27.811200986821575
lfoot 23.702845549451276 -30.973133966407087
ltoes 46.24675770255965
rfemur 3.315386932671874 -0.021326131852715258 16.43547325231738
rtibia 22.646687621356314
rfoot 30.9066799715062 -35.14430032121426
rtoes 29.72347359884462
lowerback -7.508708193830004 12.365507541752212 8.586499918292287
upperback -10.645661179832615 13.120403569791852 1.1122893110720733
thorax -4.232308051040469 4.328537637184161 -2.3019536076678815
lowerneck -14.317138595645059 -8.9720194577478 -1.4357161601903818
upperneck 12.095659179261078 -15.22772671694376 1.163914282382427
head 5.722938295902804 -7.653102832469759 -1.2697438223649176
lclavicle -7.010709931958373e-15 -4.8726271177969105e-15
lhumerus 58.526815525473275 13.456917131601053 63.015642581272175
lradius 59.72989681701469
lwrist 19.1350482618332
lhand -13.066129476147665 24.498450054317043
lfingers 7.125020000000003
lthumb -169.05324904447113 327.9610252806488
rclavicle -7.015144468965274e-15 -5.1554227315328806e-15
rhumerus 69.88958614488766 23.32980282401409 -65.04278789427369
rradius 21.287679691608993
rwrist -36.22142748740675
rhand -38.148025467462226 7.629115924659006
rfingers 7.125020000000003
rthumb -14.4336948658659 -19.83324099034342
